# xmcd
#
# Track frame offsets: 
#        150
#        16667
#        32910
#        49965
#        67645
#        80180
#        99130
#        114425
#        129120
#        149080
#        166732
#        184617
#
# Disc length: 2732 seconds
#
# Revision: 3
# Processed by: cddbd v1.5.2PL0 Copyright (c) Steve Scherf et al.
# Submitted via: ExactAudioCopy v1.3
#
DISCID=910aaa0c
DTITLE=Kathy Mattea - Ready For The Storm
DYEAR=1995
DGENRE=Country
TTITLE0=Rock Me On The Water
TTITLE1=Last Night I Dreamed Of Loving You
TTITLE2=Nobody's Gonna Rain On Our Parade
TTITLE3=Ready For The Storm
TTITLE4=I Will
TTITLE5=Standing Knee Deep In A River (Dying Of Thirst)
TTITLE6=Untasted Honey
TTITLE7=Mary, Did You Know
TTITLE8=Asking Us To Dance
TTITLE9=A Few Good Things Remain
TTITLE10=Summer Of My Dreams
TTITLE11=Late In The Day
EXTD=
EXTT0=
EXTT1=
EXTT2=
EXTT3=
EXTT4=
EXTT5=
EXTT6=
EXTT7=
EXTT8=
EXTT9=
EXTT10=
EXTT11=
PLAYORDER=
